<?xml version="1.0" encoding="UTF-8" standalone="no"?>
<svg
   xmlns:dc="http://purl.org/dc/elements/1.1/"
   xmlns:cc="http://creativecommons.org/ns#"
   xmlns:rdf="http://www.w3.org/1999/02/22-rdf-syntax-ns#"
   xmlns:svg="http://www.w3.org/2000/svg"
   xmlns="http://www.w3.org/2000/svg"
   xmlns:sodipodi="http://sodipodi.sourceforge.net/DTD/sodipodi-0.dtd"
   xmlns:inkscape="http://www.inkscape.org/namespaces/inkscape"
   height="16"
   width="16"
   version="1.1"
   id="svg3767"
   sodipodi:docname="time-sort-ascending-symbolic.svg"
   inkscape:version="0.92.3 (2405546, 2018-03-11)">
  <metadata
     id="metadata3773">
    <rdf:RDF>
      <cc:Work
         rdf:about="">
        <dc:format>image/svg+xml</dc:format>
        <dc:type
           rdf:resource="http://purl.org/dc/dcmitype/StillImage" />
        <dc:title />
      </cc:Work>
    </rdf:RDF>
  </metadata>
  <defs
     id="defs3771" />
  <sodipodi:namedview
     pagecolor="#ffffff"
     bordercolor="#666666"
     borderopacity="1"
     objecttolerance="10"
     gridtolerance="10"
     guidetolerance="10"
     inkscape:pageopacity="0"
     inkscape:pageshadow="2"
     inkscape:window-width="2319"
     inkscape:window-height="910"
     id="namedview3769"
     showgrid="false"
     inkscape:zoom="16"
     inkscape:cx="34.289306"
     inkscape:cy="9.9993872"
     inkscape:window-x="1032"
     inkscape:window-y="491"
     inkscape:window-maximized="0"
     inkscape:current-layer="svg3767" />
  <path
     style="fill:#666666;fill-opacity:1;stroke:none;stroke-width:1px;stroke-linecap:butt;stroke-linejoin:miter;stroke-opacity:1"
     d="M 10.812,-0.031 5.75,5.75 h 3.062 v 4 h 4 v -4 H 16 l -5.188,-5.781"
     id="path3784"
     inkscape:connector-curvature="0" />
  <g
     style="color:#000000"
     transform="matrix(0.625,0,0,0.625,-532.5,-281.5)"
     id="g4">
    <path
       inkscape:connector-curvature="0"
       d="m 860,460 c -4.406,0 -8,3.594 -8,8 0,4.406 3.594,8 8,8 4.406,0 8,-3.594 8,-8 0,-4.406 -3.594,-8 -8,-8 z m 0,2.133 A 5.85,5.85 0 0 1 865.867,468 5.85,5.85 0 0 1 860,473.867 5.85,5.85 0 0 1 854.133,468 5.85,5.85 0 0 1 860,462.133 Z m 3.163,2.136 a 0.533,0.533 0 0 0 -0.078,0.008 v 0.009 a 0.533,0.533 0 0 0 -0.266,0.166 l -2.834,2.825 -1.766,-1.758 a 0.533,0.533 0 1 0 -0.734,0.733 l 2.134,2.134 a 0.533,0.533 0 0 0 0.733,0 l 3.2,-3.2 a 0.533,0.533 0 0 0 -0.39,-0.917 z"
       font-weight="400"
       overflow="visible"
       style="font-weight:400;line-height:normal;font-family:sans-serif;font-variant-ligatures:normal;font-variant-position:normal;font-variant-caps:normal;font-variant-numeric:normal;font-variant-alternates:normal;font-feature-settings:normal;text-indent:0;text-align:start;text-decoration:none;text-decoration-line:none;text-decoration-style:solid;text-decoration-color:#000000;text-transform:none;text-orientation:mixed;white-space:normal;shape-padding:0;overflow:visible;isolation:auto;mix-blend-mode:normal;fill:#666666"
       id="path2" />
  </g>
</svg>
